# xmcd CD database file
# Generated: Mon Oct 24 18:18:46 2005 by KSCD
# 
# Track frame offsets:
#       150
#       15890
#       26877
#       42550
#       53260
#       63107
#       74642
#       87707
#       100757
#       110000
#       121412
#       135385
#       146300
#       156412
#       167284
#       180475
#       191734
#       203427
#
# Disc length: 2878 seconds
#
# Revision: 9
# Processed by: cddbd v1.5.1PL0 Copyright (c) Steve Scherf et al.
# Submitted via: Kscd 1.3.3
#
DISCID=ee0b3c12
DTITLE=Various Artist - The Country Box CD 2
DYEAR=1994
DGENRE=country
TTITLE0=Billie Jo Spears - Blanket on the Ground
TTITLE1=Hank Locklin - Send me the Pillow
TTITLE2=Skeeter Davis - Blue Kentucky Girl
TTITLE3=Roger Miller - King of the Road
TTITLE4=Willie Nelson - Let's Pretend
TTITLE5=George Jones - White Lightning
TTITLE6=Stonewall Jackson - I washed my hands in muddy water
TTITLE7=Kenny Rogers - Ruby
TTITLE8=Bob Luman - Let's think about to love you
TTITLE9=Dolly Parton - Makin' believe
TTITLE10=Freddy Fender - Baby I want to love you
TTITLE11=Faron Young - Wind me up
TTITLE12=Johnny Cash - Ballad of a teenage Queen
TTITLE13=Maxine Brown - I'm in the arms of a heartache
TTITLE14=Donna Fargo - Daddy
TTITLE15=Waylon Jennings - Sally was a good old girl
TTITLE16=Johnny Dollar - Big wheels sing for me
TTITLE17=Don Williams - There's never been a time
EXTD=
EXTT0=
EXTT1=
EXTT2=
EXTT3=
EXTT4=
EXTT5=
EXTT6=
EXTT7=
EXTT8=
EXTT9=
EXTT10=
EXTT11=
EXTT12=
EXTT13=
EXTT14=
EXTT15=
EXTT16=
EXTT17=
PLAYORDER=
